<?xml version="1.0" encoding="UTF-8" standalone="no"?>
<!-- Created with Inkscape (http://www.inkscape.org/) -->

<svg
   xmlns:dc="http://purl.org/dc/elements/1.1/"
   xmlns:cc="http://creativecommons.org/ns#"
   xmlns:rdf="http://www.w3.org/1999/02/22-rdf-syntax-ns#"
   xmlns:svg="http://www.w3.org/2000/svg"
   xmlns="http://www.w3.org/2000/svg"
   xmlns:xlink="http://www.w3.org/1999/xlink"
   xmlns:sodipodi="http://sodipodi.sourceforge.net/DTD/sodipodi-0.dtd"
   xmlns:inkscape="http://www.inkscape.org/namespaces/inkscape"
   version="1.1"
   id="svg92"
   width="1093.3333"
   height="1093.3333"
   viewBox="0 0 1093.3333 1093.3333"
   sodipodi:docname="Modelo-Avatar-Github-png-2.svg"
   inkscape:version="0.92.3 (2405546, 2018-03-11)">
  <metadata
     id="metadata98">
    <rdf:RDF>
      <cc:Work
         rdf:about="">
        <dc:format>image/svg+xml</dc:format>
        <dc:type
           rdf:resource="http://purl.org/dc/dcmitype/StillImage" />
        <dc:title></dc:title>
      </cc:Work>
    </rdf:RDF>
  </metadata>
  <defs
     id="defs96">
    <linearGradient
       inkscape:collect="always"
       id="linearGradient951">
      <stop
         style="stop-color:#000080;stop-opacity:1"
         offset="0"
         id="stop947" />
      <stop
         style="stop-color:#000000;stop-opacity:1"
         offset="1"
         id="stop949" />
    </linearGradient>
    <linearGradient
       inkscape:collect="always"
       id="linearGradient940">
      <stop
         style="stop-color:#0000ff;stop-opacity:1"
         offset="0"
         id="stop936" />
      <stop
         style="stop-color:#000000;stop-opacity:1"
         offset="1"
         id="stop938" />
    </linearGradient>
    <linearGradient
       inkscape:collect="always"
       id="linearGradient921">
      <stop
         style="stop-color:#0000ff;stop-opacity:1"
         offset="0"
         id="stop917" />
      <stop
         style="stop-color:#000000;stop-opacity:1"
         offset="1"
         id="stop919" />
    </linearGradient>
    <inkscape:perspective
       sodipodi:type="inkscape:persp3d"
       inkscape:vp_x="0 : 546.66665 : 1"
       inkscape:vp_y="0 : 1000 : 0"
       inkscape:vp_z="1093.3333 : 546.66665 : 1"
       inkscape:persp3d-origin="546.66665 : 364.44443 : 1"
       id="perspective1059" />
    <radialGradient
       inkscape:collect="always"
       xlink:href="#linearGradient921"
       id="radialGradient923"
       cx="-397.95312"
       cy="506.27017"
       fx="-397.95312"
       fy="506.27017"
       r="386.44208"
       gradientUnits="userSpaceOnUse"
       gradientTransform="matrix(0.94364869,1.0412675,-0.94436416,0.85583004,339.45507,283.95505)" />
    <radialGradient
       inkscape:collect="always"
       xlink:href="#linearGradient940"
       id="radialGradient942"
       cx="-473.59711"
       cy="394.44864"
       fx="-473.59711"
       fy="394.44864"
       r="409.14194"
       gradientUnits="userSpaceOnUse"
       gradientTransform="matrix(1.3460142,1.3252572,-1.3324807,1.3332863,1714.5563,647.18409)" />
    <linearGradient
       inkscape:collect="always"
       xlink:href="#linearGradient951"
       id="linearGradient953"
       x1="-460.44162"
       y1="338.53787"
       x2="-462.08606"
       y2="887.77893"
       gradientUnits="userSpaceOnUse"
       gradientTransform="matrix(1.3911205,0,0,1.3911205,52.501978,-165.05443)" />
  </defs>
  <sodipodi:namedview
     pagecolor="#ffffff"
     bordercolor="#666666"
     borderopacity="1"
     objecttolerance="10"
     gridtolerance="10"
     guidetolerance="10"
     inkscape:pageopacity="0"
     inkscape:pageshadow="2"
     inkscape:window-width="1920"
     inkscape:window-height="1026"
     id="namedview94"
     showgrid="false"
     inkscape:zoom="0.45254834"
     inkscape:cx="539.72202"
     inkscape:cy="649.56241"
     inkscape:window-x="0"
     inkscape:window-y="28"
     inkscape:window-maximized="1"
     inkscape:current-layer="svg92"
     inkscape:measure-start="1108.35,769.595"
     inkscape:measure-end="1105.06,718.618" />
  <g
     inkscape:groupmode="layer"
     id="layer2"
     inkscape:label="background">
    <g
       inkscape:groupmode="layer"
       id="layer7"
       inkscape:label="bg5"
       style="display:none">
      <ellipse
         style="display:inline;fill:#1a0000;fill-opacity:1;fill-rule:evenodd;stroke-width:1.46333766"
         id="ellipse899"
         cx="511.50244"
         cy="587.66968"
         rx="478.38034"
         ry="479.35266" />
    </g>
    <g
       inkscape:groupmode="layer"
       id="layer6"
       inkscape:label="bg4"
       style="display:none">
      <ellipse
         ry="443.99731"
         rx="443.09671"
         cy="588.49188"
         cx="507.31967"
         id="ellipse895"
         style="display:inline;fill:#1a0000;fill-opacity:1;fill-rule:evenodd;stroke-width:1.35540712" />
    </g>
    <g
       inkscape:groupmode="layer"
       id="layer5"
       inkscape:label="bg3"
       style="display:none">
      <ellipse
         style="display:inline;fill:#2b0000;fill-opacity:1;fill-rule:evenodd;stroke-width:1.24245656"
         id="circle889"
         cx="508.13025"
         cy="586.02521"
         rx="406.172"
         ry="406.99753" />
    </g>
    <g
       inkscape:groupmode="layer"
       id="layer4"
       inkscape:label="bg2"
       style="display:none">
      <circle
         r="367.5311"
         cy="586.02521"
         cx="508.95245"
         id="circle80"
         style="display:inline;fill:#3e0000;fill-opacity:1;fill-rule:evenodd;stroke-width:1.12311554" />
    </g>
    <g
       inkscape:groupmode="layer"
       id="layer3"
       inkscape:label="bg1"
       style="display:none">
      <circle
         style="fill:#550000;fill-rule:evenodd;stroke-width:1.02261305"
         id="path68"
         cx="510.59686"
         cy="584.38086"
         r="334.6424" />
    </g>
    <g
       inkscape:groupmode="layer"
       id="layer18"
       inkscape:label="gradient"
       style="display:none">
      <circle
         style="fill:#ff0000;fill-opacity:0;fill-rule:evenodd"
         id="path903"
         cx="-472.7749"
         cy="482.4259"
         r="482.64148" />
      <circle
         style="fill:url(#radialGradient923);fill-opacity:1;fill-rule:evenodd;stroke-width:1.27446806"
         id="path915"
         cx="-520.4635"
         cy="319.6268"
         r="492.50812" />
    </g>
    <g
       inkscape:groupmode="layer"
       id="layer19"
       inkscape:label="gradient2"
       style="display:inline;opacity:1">
      <rect
         style="fill:url(#radialGradient942);fill-opacity:1;fill-rule:evenodd;stroke:#ff8080;stroke-width:1.34262967;stroke-opacity:0"
         id="rect926"
         width="1101.4285"
         height="1093.2063"
         x="-4.7620678"
         y="-0.044299617" />
    </g>
    <g
       inkscape:groupmode="layer"
       id="layer20"
       inkscape:label="gradient3"
       style="display:none">
      <rect
         style="display:inline;fill:url(#linearGradient953);fill-opacity:1;fill-rule:evenodd;stroke-width:1.39112055"
         id="rect945"
         width="1082.0378"
         height="1082.0378"
         x="-1125.6154"
         y="-16.659945" />
    </g>
  </g>
  <path
     style="opacity:0;fill:none;stroke:#000000;stroke-width:1.2435379px;stroke-linecap:butt;stroke-linejoin:miter;stroke-opacity:1"
     d="m 314.00339,678.1813 c 19.35338,-19.40567 23.05258,-42.05015 14.45975,-67.2378"
     id="path164"
     inkscape:connector-curvature="0"
     sodipodi:nodetypes="cc" />
  <g
     inkscape:groupmode="layer"
     id="layer8"
     inkscape:label="avatar"
     style="display:inline">
    <g
       inkscape:groupmode="layer"
       id="layer14"
       inkscape:label="peito"
       style="display:inline">
      <path
         style="fill:#ff8080;stroke:#ff8080;stroke-width:1.2435379px;stroke-linecap:butt;stroke-linejoin:miter;stroke-opacity:1"
         d="m 673.65999,790.08533 32.20743,13.80319 -25.56146,62.88118 -36.29727,48.05553 -139.56555,-36.29726 C 417.29719,829.37347 428.9736,814.7521 402.20782,789.52134"
         id="path1013"
         inkscape:connector-curvature="0"
         sodipodi:nodetypes="cccccc" />
    </g>
    <g
       inkscape:groupmode="layer"
       id="layer13"
       inkscape:label="pescocoinf"
       style="display:inline">
      <path
         style="fill:#ffaaaa;stroke:#ffaaaa;stroke-width:1.2435379px;stroke-linecap:butt;stroke-linejoin:miter;stroke-opacity:1"
         d="m 410.88368,741.44269 1.08447,24.94306 -9.76033,23.13559 32.17293,39.76429 36.75454,18.42112 48.91944,10.49837 15.14199,1.58065 19.43296,6.47055 18.56461,-0.0984 26.38903,9.76033 c 0,0 3.97644,9.03734 4.69942,10.48331 0.12647,0.78317 32.78676,-1.39469 34.02115,-2.03427 l 4.95815,-12.01259 20.66715,-7.64275 15.90572,-48.07865 -12.79137,-51.00692"
         id="path1010"
         inkscape:connector-curvature="0"
         sodipodi:nodetypes="cccccccccccccccc" />
    </g>
    <g
       inkscape:groupmode="layer"
       id="layer12"
       inkscape:label="pescoco"
       style="display:inline">
      <path
         style="fill:#ff5555;stroke:#ff5555;stroke-width:1.2435379px;stroke-linecap:butt;stroke-linejoin:miter;stroke-opacity:1"
         d="m 399.31588,659.38364 10.54987,65.77558 1.01793,16.28347 42.65623,14.09825 16.9902,7.95285 108.08659,41.57177 63.26138,-6.14539 25.16546,-33.29375 -10.70572,-15.14639"
         id="path1005"
         inkscape:connector-curvature="0"
         sodipodi:nodetypes="ccccccccc" />
    </g>
    <g
       inkscape:groupmode="layer"
       id="layer16"
       inkscape:label="cabelobg"
       style="display:inline">
      <path
         style="fill:#000000;stroke:#000000;stroke-width:1.2435379px;stroke-linecap:butt;stroke-linejoin:miter;stroke-opacity:1"
         d="m 352.60808,540.09427 46.7078,119.28937 10.54987,65.77558 -43.9657,-91.51001 -20.44918,-93.04371 7.15721,-0.51123"
         id="path1029"
         inkscape:connector-curvature="0" />
      <path
         style="fill:#000000;stroke:#000000;stroke-width:1.2435379px;stroke-linecap:butt;stroke-linejoin:miter;stroke-opacity:1"
         d="m 744.18076,509.3638 5.06092,42.65624 13.01377,17.35169 7.22987,7.95286 -21.68962,-8.67584 -20.24364,-20.24364 2.16895,-54.22404 z"
         id="path1031"
         inkscape:connector-curvature="0" />
    </g>
    <g
       inkscape:groupmode="layer"
       id="layer11"
       inkscape:label="rosto"
       style="display:inline">
      <path
         style="fill:#ffaaaa;stroke:#ff9a82;stroke-width:1.2435379;stroke-linecap:butt;stroke-linejoin:round;stroke-miterlimit:4;stroke-dasharray:none;stroke-dashoffset:0;stroke-opacity:1;paint-order:normal"
         d="m 733.26419,485.09111 -1.02246,34.25236 8.6909,40.89832 c 4.56782,21.30122 0.82237,42.60243 -2.55614,63.90365 -24.40843,49.30164 -58.54973,98.33343 -95.08863,142.1217 l -56.23521,1.02246 C 514.3835,729.26592 441.79061,691.06556 373.8701,642.03844 L 361.08937,588.87063 C 355.6767,559.0125 339.88978,511.59795 350.35356,508.60765 l 2.04491,-11.24704"
         id="path994"
         inkscape:connector-curvature="0"
         sodipodi:nodetypes="cccccccccc" />
      <path
         style="fill:#ffaaaa;stroke:#ffaaaa;stroke-width:1.2435379px;stroke-linecap:butt;stroke-linejoin:miter;stroke-opacity:1"
         d="m 350.35356,508.60765 39.06302,-173.51626 84.35281,-71.57208 209.60394,127.80728 49.89086,93.76452"
         id="path996"
         inkscape:connector-curvature="0"
         sodipodi:nodetypes="ccccc" />
      <path
         style="opacity:0;fill:#ff8080;stroke:#ff9a82;stroke-width:0.51122916;stroke-linecap:butt;stroke-linejoin:round;stroke-miterlimit:4;stroke-dasharray:none;stroke-dashoffset:0;stroke-opacity:1;paint-order:normal"
         d="m 600.32107,757.28157 c -0.55505,-0.61331 -0.84608,-1.83394 -0.84608,-3.54843 0,-1.43745 -0.23381,-2.75803 -0.51958,-2.93464 -0.28575,-0.17661 -0.40406,-0.508 -0.26289,-0.73641 0.14116,-0.22842 -0.31519,-1.25798 -1.01412,-2.28791 -1.5599,-2.29863 -1.60673,-3.23984 -0.17182,-3.45315 0.60443,-0.0899 1.54095,-0.75767 2.08115,-1.48406 0.97963,-1.3173 0.97847,-1.32821 -0.44973,-4.24025 -1.23552,-2.51919 -1.60854,-2.89893 -2.72018,-2.76914 -0.86712,0.10123 -1.3394,0.50901 -1.44465,1.2473 -0.0861,0.60329 -0.60363,1.50164 -1.15027,1.99635 -0.54664,0.4947 -0.9939,1.55396 -0.9939,2.35391 0,1.84584 -1.10339,1.90742 -3.1606,0.17639 -1.71575,-1.44371 -4.26612,-1.68587 -5.816,-0.55223 -0.86965,0.63609 -0.98087,1.29988 -0.89939,5.3679 0.0613,3.05817 -0.0966,4.64207 -0.46266,4.64207 -0.3056,0 -0.17763,0.41768 0.28438,0.92819 1.02261,1.12998 1.72152,4.18409 0.95748,4.18409 -0.76151,0 -3.67685,-1.71613 -3.6807,-2.16668 -10e-4,-0.20755 -0.92345,-0.52453 -2.04815,-0.70437 -2.27441,-0.3637 -2.42341,-0.6771 -1.20556,-2.53578 0.67064,-1.02353 0.72423,-1.53373 0.26658,-2.53816 -0.95306,-2.09173 -4.17331,-1.26036 -4.17331,1.07743 0,1.74746 -1.03972,2.00151 -4.07082,0.99474 -2.1336,-0.70866 -2.57516,-1.06434 -2.57516,-2.07433 0,-1.48165 -0.81476,-1.9277 -5.1123,-2.79873 -1.82764,-0.37044 -3.47035,-0.89516 -3.65048,-1.16604 -0.18011,-0.27089 -1.56044,-0.52557 -3.06737,-0.56596 -1.90563,-0.0511 -3.80807,-0.57536 -6.24808,-1.72184 -1.9295,-0.9066 -3.81934,-1.64837 -4.19965,-1.64837 -1.02571,0 -1.82132,-1.83791 -1.44489,-3.33775 0.30924,-1.23212 0.23849,-1.29223 -1.13789,-0.96695 -0.80721,0.19078 -1.68619,0.54722 -1.95331,0.79209 -0.67026,0.61444 -4.76836,0.55883 -6.93053,-0.094 -0.98225,-0.29659 -2.21716,-0.63398 -2.74422,-0.74975 -0.52705,-0.11577 -1.45808,-0.53795 -2.06893,-0.93819 -0.61085,-0.40025 -3.74545,-2.10636 -6.96576,-3.79135 -12.85945,-6.72858 -35.32428,-19.51835 -36.26382,-20.64589 -0.54883,-0.65865 -1.00552,-1.56004 -1.01489,-2.00308 -0.01,-0.44305 -0.59213,-1.34584 -1.29508,-2.00622 -1.37232,-1.28923 -1.65669,-2.99549 -0.6646,-3.9876 1.26772,-1.26771 9.3193,-0.29573 11.32258,1.36684 0.45741,0.37963 1.20883,0.54549 1.66981,0.3686 0.46099,-0.1769 1.1469,-0.0654 1.52425,0.24777 0.83294,0.69128 8.89767,1.13681 8.89767,0.49155 0,-0.87242 -2.70043,-2.577 -4.0825,-2.577 -2.20483,0 -4.53806,-1.0179 -4.89242,-2.13438 -0.23102,-0.7279 -0.62893,-0.94719 -1.36796,-0.75394 -0.5732,0.1499 -1.98885,-0.14769 -3.14589,-0.66132 -1.15705,-0.51362 -3.59907,-1.4613 -5.42671,-2.10593 -1.82765,-0.64464 -3.87164,-1.59131 -4.5422,-2.1037 -0.67057,-0.5124 -1.5629,-0.93163 -1.98296,-0.93163 -0.42007,0 -1.655,-0.80518 -2.74429,-1.7893 -1.0893,-0.98411 -2.39988,-1.7893 -2.91241,-1.7893 -0.99481,0 -3.15502,-1.99899 -3.15502,-2.91956 0,-0.30422 -0.84292,-1.29321 -1.87314,-2.19776 -1.68479,-1.47927 -2.10025,-1.61352 -4.13146,-1.33512 -1.93768,0.26559 -2.56087,0.10085 -4.38941,-1.16057 -1.17211,-0.80856 -2.56935,-1.95699 -3.10499,-2.55207 -0.70334,-0.78139 -1.58139,-1.08197 -3.16073,-1.08197 -1.73786,0 -2.25348,-0.20992 -2.51136,-1.02245 -0.36699,-1.15627 -0.89581,-1.26301 -2.36413,-0.47719 -0.56035,0.29989 -1.68682,0.39854 -2.50324,0.21924 -2.02749,-0.44532 -3.05668,-2.68763 -3.05668,-6.65959 0,-2.07243 -0.24452,-3.38478 -0.70128,-3.76386 -0.38571,-0.3201 -0.82301,-1.662 -0.9718,-2.98199 -0.30101,-2.67061 -1.6897,-4.22962 -3.76751,-4.22962 -1.50453,0 -1.93733,-0.96376 -1.49401,-3.32685 0.3059,-1.63061 0.48812,-1.78545 2.10108,-1.78545 1.7543,0 1.76613,-0.0155 1.76613,-2.31752 0,-2.32756 -2.08291,-7.39583 -3.03946,-7.39583 -1.02266,0 -2.07282,1.70203 -2.07282,3.3595 v 1.75278 h -7.31254 -7.31253 l -1.63398,-1.68582 c -1.68693,-1.74047 -2.15259,-3.42646 -0.94637,-3.42646 0.92525,0 2.37977,-1.66505 2.37977,-2.72421 0,-0.75909 -0.82686,-0.85439 -7.41282,-0.85439 h -7.41282 v -4.85669 -4.85668 h 3.32299 c 2.61295,0 3.32299,0.16386 3.32299,0.76686 0,0.61772 0.79524,0.76684 4.08983,0.76684 h 4.08983 v -2.55615 -2.55615 h -4.08983 c -3.29459,0 -4.08983,-0.1491 -4.08983,-0.76684 0,-0.53558 -0.53964,-0.76684 -1.78931,-0.76684 -1.24967,0 -1.7893,-0.23127 -1.7893,-0.76685 0,-0.98879 -1.22429,-0.98879 -2.04491,0 -0.82917,0.99908 -4.28313,0.99908 -5.1123,0 -0.35894,-0.43251 -1.4734,-0.76684 -2.55614,-0.76684 -1.08275,0 -2.19719,-0.33434 -2.55615,-0.76684 -0.76201,-0.91817 -4.14178,-1.02163 -5.01004,-0.15337 -0.35686,0.35686 -0.61348,2.06763 -0.61348,4.08982 0,3.13555 -0.10023,3.47636 -1.02246,3.47636 -0.92048,0 -1.02346,-0.34416 -1.03251,-3.45079 -0.005,-1.89794 -0.34259,-5.29122 -0.74901,-7.54063 -1.06394,-5.88858 -1.06547,-5.87913 0.95208,-5.87913 2.0684,0 2.73447,0.68965 2.96039,3.06524 0.11478,1.20708 0.45858,1.8378 1.06423,1.95253 0.69476,0.13162 0.89466,-0.18159 0.89466,-1.40169 0,-1.4548 0.13252,-1.57117 1.7893,-1.57117 1.70409,0 1.7893,-0.0852 1.7893,-1.7893 0,-1.44848 -0.19475,-1.78931 -1.02246,-1.78931 -0.56803,0 -1.02245,-0.34081 -1.02245,-0.76684 0,-0.42602 0.45442,-0.76684 1.02245,-0.76684 0.56803,0 1.02246,-0.34083 1.02246,-0.76684 0,-0.42177 0.34508,-0.76685 0.76684,-0.76685 0.42177,0 0.76685,-0.34508 0.76685,-0.76684 0,-0.42177 0.34508,-0.76684 0.76684,-0.76684 0.42603,0 0.76684,-0.45443 0.76684,-1.02246 0,-0.56804 0.34083,-1.02246 0.76685,-1.02246 0.42176,0 0.76684,-0.34508 0.76684,-0.76684 0,-0.42603 0.45443,-0.76684 1.02247,-0.76684 0.56802,0 1.02245,-0.34083 1.02245,-0.76686 0,-0.50772 0.50779,-0.76684 1.50282,-0.76684 1.36666,0 1.51721,-0.17317 1.66151,-1.91116 0.14539,-1.7514 0.30969,-1.93548 1.96532,-2.2021 0.99368,-0.16002 2.08642,-0.46384 2.42835,-0.67515 0.91921,-0.5681 0.79835,-3.39126 -0.14517,-3.39126 -0.42603,0 -0.76684,-0.45442 -0.76684,-1.02244 0,-0.94227 -0.34083,-1.02247 -4.34546,-1.02247 -3.5218,0 -4.34545,-0.14534 -4.34545,-0.76684 0,-0.42177 -0.34508,-0.76685 -0.76684,-0.76685 -0.42177,0 -0.76685,-0.34508 -0.76685,-0.76684 0,-0.42176 -0.34507,-0.76684 -0.76684,-0.76684 -0.57886,0 -0.76684,-0.62338 -0.76684,-2.54302 0,-2.30851 0.14143,-2.61616 1.53368,-3.33612 1.60119,-0.82801 2.09203,-2.30053 0.76685,-2.30053 -0.5794,0 -0.76685,-0.62484 -0.76685,-2.55614 0,-1.93131 -0.18745,-2.55615 -0.76684,-2.55615 -0.60147,0 -0.76684,-0.70309 -0.76684,-3.2604 0,-2.27444 -0.23189,-3.45283 -0.76685,-3.89681 -0.99062,-0.82214 -0.99062,-4.09832 0,-6.46921 0.42177,-1.00943 0.76685,-3.28007 0.76685,-5.04587 0,-3.08574 0.0578,-3.23071 1.48801,-3.72927 0.81839,-0.28529 2.40609,-0.39557 3.5282,-0.24506 2.72903,0.36603 3.13441,-0.48414 2.69839,-5.65899 -0.28256,-3.35342 -0.53573,-4.18161 -1.52265,-4.98076 -0.84061,-0.68069 -1.42799,-0.82041 -2.02636,-0.482 -0.63485,0.35905 -1.2365,0.0966 -2.44023,-1.06455 l -1.59762,-1.54111 1.49461,-1.62311 c 1.12704,-1.22395 1.47093,-2.06315 1.39836,-3.41242 -0.20256,-3.76567 0.33008,-4.36206 2.62534,-2.93957 1.41221,0.87521 2.14008,-0.25948 1.83074,-2.85398 -0.29465,-2.47121 -0.59332,-2.75951 -1.76258,-1.70134 -1.48099,1.34027 -2.42245,1.02107 -3.05358,-1.03534 -0.52045,-1.69578 -0.41398,-2.25731 1.06449,-5.61377 0.97291,-2.20875 1.95548,-3.73663 2.40963,-3.74695 0.42177,-0.01 17.79077,-0.69089 38.5978,-1.51397 35.62037,-1.40909 37.90564,-1.44609 39.10903,-0.63319 1.73144,1.1696 4.02669,2.14509 5.04725,2.14509 1.09201,0 5.78588,2.49925 6.48578,3.45336 0.42442,0.57858 0.93269,0.63035 2.34905,0.23928 1.10351,-0.30469 2.13251,-0.31713 2.64217,-0.032 0.5582,0.31239 1.35159,0.19987 2.39484,-0.33961 1.624,-0.8398 2.10224,-0.73478 3.86858,0.84949 0.90281,0.80975 1.30624,0.86544 2.7141,0.37465 3.19692,-1.11445 8.61431,0.62519 7.99762,2.56822 -0.16477,0.51914 0.0502,1.20631 0.4921,1.57307 0.94984,0.78829 0.33704,1.71924 -1.88964,2.87071 -1.52617,0.78921 -2.01277,0.67126 -3.7821,-0.91677 -0.92142,-0.82701 -1.39658,-0.89365 -3.30878,-0.46401 -2.48384,0.55809 -3.54325,1.63702 -3.53152,3.59661 0.01,1.71656 0.4187,2.26919 2.44421,3.30713 1.47476,0.75574 2.78337,0.82024 10.48019,0.5166 8.54777,-0.33721 8.82239,-0.31635 9.7689,0.74146 0.53564,0.59864 1.39833,1.08842 1.91711,1.08842 0.51877,0 0.94322,0.34508 0.94322,0.76686 0,0.42175 -0.33698,0.76684 -0.74886,0.76684 -1.08521,0 -1.82585,1.62762 -1.22731,2.69715 0.4215,0.75317 1.33223,0.88145 6.25791,0.88145 5.31803,0 5.84809,-0.0892 6.84213,-1.15027 1.23388,-1.31717 2.30537,-3.82571 1.76513,-4.13239 -0.20014,-0.11366 -1.22659,-0.36224 -2.281,-0.55249 -1.05441,-0.19026 -1.91711,-0.5299 -1.91711,-0.75476 0,-0.91105 1.92175,-2.00974 4.08983,-2.33821 1.2653,-0.19169 3.04555,-0.68637 3.95611,-1.09929 1.15434,-0.52345 3.0117,-0.70565 6.13476,-0.60177 l 4.47917,0.14898 0.16063,-2.24294 0.16064,-2.24294 -2.51083,0.33307 c -2.09002,0.27726 -2.73811,0.15429 -3.86704,-0.73373 -1.13648,-0.89396 -1.35623,-1.47104 -1.35623,-3.56179 0,-3.62465 0.81108,-5.09924 2.80472,-5.09924 1.065,0 2.02855,0.43688 2.81881,1.27808 1.44673,1.53997 2.55614,1.6509 2.55614,0.2556 0,-0.68163 0.34082,-1.02246 1.02246,-1.02246 0.8277,0 1.02245,0.34083 1.02245,1.7893 0,1.24969 0.23128,1.78931 0.76686,1.78931 0.51123,0 0.76684,0.51123 0.76684,1.53369 0,1.02246 0.2556,1.53369 0.76684,1.53369 0.5794,0 0.76685,0.62483 0.76685,2.55614 v 2.55615 h 1.7893 c 1.24967,0 1.7893,0.23127 1.7893,0.76684 0,0.51123 0.51123,0.76685 1.53368,0.76685 1.19287,0 1.5337,0.22721 1.5337,1.02245 0,0.56803 0.34081,1.02246 0.76684,1.02246 0.57938,0 0.76684,0.62484 0.76684,2.55614 0,1.50743 0.22913,2.55616 0.55847,2.55616 0.34693,0 0.51655,-1.01658 0.4478,-2.68396 -0.24545,-5.95251 -0.22678,-6.00694 2.06111,-6.00694 1.65964,0 2.04491,-0.18084 2.04491,-0.95987 0,-0.52792 0.34508,-1.24625 0.76684,-1.59628 0.42177,-0.35003 0.76685,-1.06836 0.76685,-1.59629 0,-0.75616 0.37972,-0.95985 1.78931,-0.95985 1.40957,0 1.7893,0.20369 1.7893,0.95985 0,0.52793 0.34507,1.24626 0.76684,1.59629 0.42176,0.35003 0.76684,1.06836 0.76684,1.59628 0,0.75033 0.37851,0.95987 1.73388,0.95987 1.42311,0 1.79137,0.22907 2.05466,1.27807 0.17643,0.70294 0.17374,1.86387 -0.006,2.57984 -0.3109,1.2387 -0.37329,1.25963 -1.28781,0.43199 -0.52861,-0.47837 -0.9611,-1.29422 -0.9611,-1.81299 0,-0.85063 -0.47683,-0.94322 -4.85668,-0.94322 h -4.85669 v 1.7893 c 0,1.44849 -0.19475,1.7893 -1.02245,1.7893 -0.77518,0 -1.02246,0.34082 -1.02246,1.40922 0,1.19596 0.30823,1.5054 2.03687,2.04491 2.57799,0.80459 7.35305,0.81884 9.53877,0.0285 1.44932,-0.52408 1.82182,-0.47823 2.72025,0.33484 0.97068,0.87845 1.10412,0.88494 1.97589,0.096 1.31583,-1.1908 5.29057,-1.13562 6.39868,0.0888 0.70635,0.78052 0.84608,2.17353 0.84608,8.43528 v 7.50038 h -3.24375 c -4.23308,0 -4.93591,-0.71549 -4.93591,-5.02474 v -3.15492 h -7.9401 c -6.7933,0 -7.98525,0.11764 -8.25271,0.81463 -0.17193,0.44806 -0.10719,2.8061 0.14386,5.2401 l 0.45646,4.42546 1.9171,0.15867 c 1.10977,0.0919 1.91712,-0.0696 1.91712,-0.38343 0,-0.29815 0.34508,-0.54208 0.76684,-0.54208 0.42177,0 0.76685,-0.34508 0.76685,-0.76684 0,-0.53558 0.53963,-0.76685 1.7893,-0.76685 1.24967,0 1.7893,0.23127 1.7893,0.76685 0,0.42176 0.34507,0.76684 0.76684,0.76684 0.42176,0 0.76684,0.23005 0.76684,0.51123 0,0.28118 0.89462,0.51123 1.98802,0.51123 1.86576,0 2.00859,0.10956 2.32236,1.78213 0.19184,1.02261 0.0871,2.24421 -0.2459,2.86631 -0.57188,1.06858 -0.60533,1.05987 -2.32236,-0.60434 -0.95817,-0.92869 -1.74212,-2.10351 -1.74212,-2.6107 0,-0.79417 -0.46128,-0.92218 -3.32298,-0.92218 -2.86172,0 -3.32299,0.12801 -3.32299,0.92218 0,0.50719 -0.7892,1.6871 -1.75379,2.622 l -1.75377,1.69983 -0.34909,-1.86081 c -0.39382,-2.0992 -1.14657,-2.83493 -1.82855,-1.7872 -1.01807,1.56405 -1.07614,3.0527 -0.15865,4.06652 0.50782,0.56114 1.05272,1.9897 1.21086,3.17458 0.22774,1.70636 0.5169,2.18701 1.39054,2.3115 0.614,0.0876 1.52967,-0.30082 2.06546,-0.87592 2.35871,-2.53177 7.91048,-3.01819 8.23741,-0.72173 0.1016,0.71376 -0.22069,1.3188 -0.89465,1.67949 -0.98375,0.52649 -1.05348,1.01945 -1.05348,7.44741 v 6.88361 h 2.57219 c 2.8849,0 3.44272,0.60907 2.67676,2.92271 -0.61487,1.85722 -3.05751,2.23006 -4.45966,0.6807 -0.59541,-0.65792 -1.58352,-1.04726 -2.65783,-1.04726 -1.14688,0 -1.71006,-0.24224 -1.71006,-0.73553 0,-0.48641 -0.82245,-0.85673 -2.42835,-1.0934 -1.33558,-0.19686 -2.59735,-0.61354 -2.80392,-0.92599 -0.20658,-0.31244 -0.37912,-2.79228 -0.38342,-5.51074 -0.009,-5.6238 -0.23671,-6.55999 -1.59622,-6.55999 -0.75851,0 -0.96776,0.37335 -0.96776,1.72671 0,0.94969 -0.35411,2.0206 -0.78692,2.37978 -0.60891,0.50536 -0.75348,1.53143 -0.63903,4.53585 l 0.14788,3.88278 1.95899,0.16116 c 1.61071,0.13251 1.89443,0.3143 1.59576,1.02246 -0.19979,0.4737 -0.47552,1.37891 -0.61272,2.01156 -0.24336,1.12208 -0.41459,1.15026 -6.98923,1.15026 -7.42726,0 -7.9667,0.19731 -7.9667,2.91401 v 1.68706 h -6.56674 c -5.7125,0 -6.67681,0.12161 -7.41281,0.9349 -0.46536,0.5142 -0.84608,1.31938 -0.84608,1.7893 0,1.05654 -0.86892,1.07999 -3.24414,0.0875 -1.00943,-0.42177 -2.97939,-0.76685 -4.37772,-0.76685 -1.3983,0 -2.6722,-0.21004 -2.83085,-0.46674 -0.15865,-0.25672 -1.20747,-0.62202 -2.3307,-0.81178 l -2.04224,-0.34505 v -3.4199 c 0,-2.3654 -0.26289,-3.79525 -0.8526,-4.63717 l -0.85259,-1.21726 -1.06451,1.27203 c -1.22578,1.46472 -4.96857,3.49112 -6.44817,3.49112 -0.86176,0 -1.00672,0.35362 -1.00672,2.45606 0,2.72127 -2.0957,6.70129 -4.09084,7.76907 -1.02006,0.54591 -1.07502,0.87715 -0.83297,5.02083 0.14252,2.44 0.4081,5.48465 0.59018,6.76591 0.24784,1.74404 0.14061,2.48757 -0.42665,2.95836 -1.05843,0.87842 -0.56282,2.24085 1.17875,3.24039 1.6796,0.96395 2.43509,3.15203 3.05581,8.85043 0.29478,2.70616 1.05233,5.01876 3.09912,9.4608 1.85071,4.01649 2.77835,6.73531 2.92794,8.58149 0.22345,2.75792 2.16587,6.68575 4.59544,9.29259 0.63265,0.67881 1.15341,1.59341 1.15724,2.03245 0.004,0.43903 0.13674,1.28158 0.29531,1.87231 0.17288,0.64396 -0.0489,1.41123 -0.55371,1.91609 -1.23841,1.23842 -2.81595,0.24825 -2.81595,-1.76746 0,-1.17191 -0.51454,-2.01447 -2.09641,-3.43282 -1.20076,-1.07664 -2.69732,-3.19018 -3.50296,-4.94708 -0.7736,-1.68705 -2.30328,-3.90548 -3.39929,-4.92982 -1.09602,-1.02435 -2.28939,-2.23212 -2.65196,-2.68395 -1.01029,-1.25906 -2.61659,-1.01223 -3.18767,0.48984 -0.65108,1.71248 -0.63946,4.676 0.0199,5.08354 0.2852,0.17626 1.0068,1.28258 1.60356,2.4585 0.59676,1.17592 1.62883,2.78848 2.29351,3.58349 0.66467,0.79499 1.35044,2.33316 1.52394,3.41815 0.17663,1.10459 0.85548,2.48005 1.54259,3.12557 0.67494,0.63405 1.93495,2.6617 2.80004,4.50588 1.68391,3.58969 3.28176,5.65359 4.37697,5.65359 0.37275,0 0.67774,0.34508 0.67774,0.76684 0,0.53558 0.53963,0.76684 1.7893,0.76684 1.70617,0 1.7893,0.0837 1.7893,1.80027 0,1.4162 0.26821,1.92246 1.25722,2.37309 1.02105,0.46522 1.16173,0.75127 0.74886,1.52272 -0.27959,0.52245 -0.96036,0.94991 -1.51281,0.94991 -0.76901,0 -1.00448,0.34972 -1.00448,1.49187 0,2.37517 0.4846,3.25648 1.38139,2.51221 0.61814,-0.51301 1.11481,-0.24047 2.81178,1.543 1.96427,2.06439 2.16484,2.15052 4.27219,1.8345 2.21281,-0.33183 5.82454,0.62649 8.11102,2.15215 0.64862,0.4328 1.9552,0.56517 3.83423,0.38849 2.64008,-0.24824 2.97798,-0.1527 4.58109,1.29525 1.9553,1.76606 2.89933,1.92067 4.57234,0.74886 0.87919,-0.61582 1.81072,-0.73479 3.82016,-0.48787 1.46161,0.17958 4.44037,0.44856 6.61948,0.59771 l 3.96202,0.27118 v 2.98921 c 0,2.47891 0.2286,3.26089 1.33898,4.5805 1.65929,1.97196 3.383,2.86485 6.23361,3.22907 1.21256,0.15492 3.421,0.87677 4.90763,1.60411 1.48662,0.72734 2.97691,1.32243 3.31173,1.32243 0.88897,0 3.63476,2.13686 3.63476,2.82868 0,2.12083 5.59084,3.11989 8.63881,1.54371 l 1.43083,-0.73991 0.92794,4.0629 c 0.89151,3.90334 0.98488,4.0629 2.37801,4.0629 0.96281,0 1.45006,-0.26368 1.45006,-0.78473 0,-0.66392 0.8067,-0.7623 5.2401,-0.63904 l 5.24009,0.14569 v 2.94051 2.9405 l 3.96204,-0.001 3.96202,-10e-4 v -1.47108 c 0,-0.8091 -0.34508,-1.75748 -0.76685,-2.10752 -0.42752,-0.35481 -0.76684,-1.4692 -0.76684,-2.51845 0,-1.45774 0.38006,-2.25041 1.68584,-3.516 1.95449,-1.89437 2.90667,-2.03323 4.19329,-0.61153 0.50893,0.56236 1.23474,1.02247 1.61292,1.02247 0.4232,0 0.68762,0.58977 0.68762,1.53369 0,1.02245 -0.25562,1.53368 -0.76684,1.53368 -0.53558,0 -0.76686,0.53963 -0.76686,1.7893 0,1.24967 -0.23126,1.7893 -0.76684,1.7893 -0.9398,0 -1.05279,2.3747 -0.12781,2.68603 0.4982,0.16768 0.48441,0.40241 -0.0625,1.06505 -0.55009,0.66639 -1.60746,0.84999 -4.89537,0.84999 -4.55699,0 -5.44983,0.48525 -6.81959,3.70641 -0.53545,1.2592 -0.85742,1.40588 -3.0857,1.40588 -2.4703,1.8e-4 -4.18003,-1.00954 -4.18003,-2.46842 0,-0.39439 -1.10277,-0.59877 -3.23057,-0.59877 h -3.23058 l -0.69606,-2.55616 c -0.38283,-1.40587 -0.96503,-2.55614 -1.29379,-2.55614 -0.90597,0 -4.28395,2.63778 -7.11169,5.55337 l -2.52635,2.60481 3.29319,3.54306 c 2.93751,3.16042 3.48606,3.53428 5.07887,3.46155 1.40357,-0.064 1.92915,-0.38236 2.45622,-1.48741 1.00891,-2.11525 3.19295,-1.78989 4.4623,0.66475 0.40828,0.78954 1.20495,1.58235 1.77039,1.76181 0.88957,0.28233 1.02807,0.76931 1.02807,3.61484 0,2.58232 -0.16468,3.28853 -0.76684,3.28853 -0.42177,0 -0.76685,0.34509 -0.76685,0.76684 0,0.52881 -0.53082,0.76684 -1.71006,0.76684 -2.05567,0 -3.40222,1.30766 -3.40222,3.30394 0,0.78876 -0.26024,2.30267 -0.57829,3.36423 -0.71823,2.39724 -0.25798,4.40682 1.10862,4.84055 1.00939,0.32038 1.00337,0.35801 -0.20964,1.31215 -1.54971,1.21901 -1.98681,1.2258 -3.05322,0.0475 z M 495.89625,713.82825 c 0.36239,-0.58634 -0.22419,-2.64485 -0.75365,-2.64485 -0.63881,0 -1.58973,1.98448 -1.22991,2.56671 0.37694,0.60988 1.62455,0.65904 1.98356,0.0781 z m 29.66346,-2.97365 c 0.39868,-1.03895 0.54985,-0.94179 -2.51349,-1.61553 -4.19773,-0.92322 -9.08454,-2.2412 -10.99142,-2.96439 -0.98412,-0.37324 -2.88206,-0.8279 -4.21764,-1.01036 -2.01672,-0.27553 -2.42833,-0.19417 -2.42833,0.47999 0,0.88593 2.46609,2.3717 3.93663,2.37173 0.50602,0 1.56249,0.80519 2.34771,1.7893 l 1.42768,1.78927 h 6.05826 c 5.14806,0 6.10669,-0.1262 6.3806,-0.84001 z m -73.34015,-39.16366 c 0.0194,-1.26998 -0.15152,-1.40588 -1.76787,-1.40588 -1.54326,0 -1.78931,0.16716 -1.78931,1.21563 0,0.6686 0.36986,2.10082 0.8219,3.1827 l 0.82189,1.96706 0.94598,-1.77682 c 0.52029,-0.97725 0.95562,-2.40945 0.96741,-3.18269 z m 57.27909,-35.48558 c 0,-0.67972 -0.46479,-2.1469 -1.03285,-3.2604 -0.84722,-1.66069 -1.30118,-2.02454 -2.52597,-2.02454 -1.99691,0 -2.26505,0.61235 -1.55828,3.55856 0.48092,2.00463 0.90892,2.63875 2.20461,3.26627 1.88861,0.91469 2.91249,0.37333 2.91249,-1.53989 z m -6.75449,-8.14045 c 0.081,-0.54238 -0.18453,-1.43967 -0.58986,-1.99399 -0.70803,-0.96829 -0.76577,-0.93804 -1.47071,0.77055 -0.654,1.58512 -0.64544,1.81596 0.0786,2.1239 1.18465,0.5038 1.81519,0.21732 1.98193,-0.90046 z m -81.68814,-9.6278 c 0,-2.6462 -0.44841,-3.3648 -2.09962,-3.3648 -1.34946,0 -1.47899,0.15671 -1.47899,1.7893 0,1.24967 0.23126,1.78931 0.76684,1.78931 0.42176,0 0.76684,0.34508 0.76684,0.76684 0,0.42602 0.45443,0.76685 1.02246,0.76685 0.82305,0 1.02247,-0.34083 1.02247,-1.7475 z m 90.48755,-25.38276 c 0,-1.70517 -1.25641,-2.95855 -1.7296,-1.72543 -0.43261,1.12738 -0.39744,4.06414 0.0541,4.51566 0.57365,0.57367 1.67553,-1.26126 1.67553,-2.79023 z M 407.97785,569.26261 c 1.02831,-0.3946 1.06277,-2.24584 0.0418,-2.24584 -0.42177,0 -0.76684,-0.34508 -0.76684,-0.76684 0,-0.57939 -0.62484,-0.76684 -2.55615,-0.76684 -2.14375,0 -2.55614,0.15217 -2.55614,0.94322 0,1.97366 3.56777,3.7072 5.83731,2.8363 z m 155.40218,-0.79119 c 1.4634,-2.08929 -1.13289,-4.18019 -2.75847,-2.22149 -0.35003,0.42176 -1.06836,0.76684 -1.59628,0.76684 -1.41875,0 -1.25245,1.91745 0.1904,2.19535 2.50691,0.48286 3.42125,0.32023 4.16435,-0.7407 z m -84.35238,-45.47553 c -1.37976,-1.44017 -3.42666,-1.95477 -4.01149,-1.0085 -0.36005,0.58257 1.0831,2.08613 2.0023,2.08613 0.37218,0 1.21844,0.56673 1.8806,1.25941 1.17144,1.22542 1.20852,1.23083 1.37451,0.20043 0.10197,-0.63267 -0.39961,-1.65413 -1.24592,-2.53747 z"
         id="path998"
         inkscape:connector-curvature="0" />
      <path
         style="opacity:0;fill:#ff8080;stroke:#ff9a82;stroke-width:0.51122916;stroke-linecap:butt;stroke-linejoin:round;stroke-miterlimit:4;stroke-dasharray:none;stroke-dashoffset:0;stroke-opacity:1;paint-order:normal"
         d="m 598.33114,758.98297 c -0.7697,-0.43582 -1.77894,-1.53425 -2.24277,-2.44096 -0.46382,-0.90668 -1.45147,-2.45372 -2.19478,-3.43783 -0.74331,-0.98411 -1.68838,-2.45466 -2.10015,-3.26786 -0.41177,-0.8132 -1.62351,-2.03081 -2.69274,-2.70577 -1.06923,-0.67498 -2.07221,-1.56118 -2.22882,-1.96932 -0.47273,-1.2319 -1.12114,-0.34537 -1.47545,2.01727 -0.21944,1.46342 -0.10383,2.6457 0.33637,3.43888 0.36892,0.66479 1.05529,2.65236 1.52525,4.41681 0.8165,3.06551 0.8131,3.23022 -0.0766,3.70641 -1.48623,0.79541 -2.67046,0.59038 -4.74934,-0.82225 -1.06887,-0.72633 -3.48032,-1.85923 -5.35878,-2.51758 -7.06468,-2.476 -12.78263,-4.91922 -14.91801,-6.37433 -1.81669,-1.23793 -6.23973,-2.56824 -8.53895,-2.56824 -1.14551,0 -3.29354,-0.65231 -5.18221,-1.57373 -1.77416,-0.86557 -3.55003,-1.4493 -3.94638,-1.2972 -0.40283,0.15457 -1.35199,-0.39901 -2.15221,-1.25525 -0.89499,-0.95764 -2.41081,-1.79009 -4.0442,-2.22097 -1.43695,-0.37906 -8.15944,-3.73129 -14.93887,-7.4494 -11.40416,-6.25449 -13.69893,-7.67507 -12.39813,-7.67507 0.27144,0 0.37322,-0.46011 0.22616,-1.02246 -0.31893,-1.21956 -2.19304,-1.39127 -2.19304,-0.20092 0,1.10749 -0.12174,1.05166 -11.47048,-5.26276 -23.10085,-12.85324 -46.41439,-26.48136 -46.7255,-27.31378 -0.0943,-0.25234 -0.34884,-0.3492 -0.56561,-0.21522 -0.21678,0.13398 -0.75747,-0.15215 -1.20152,-0.63585 -2.15091,-2.34285 -3.44087,-3.41505 -6.62946,-5.51026 -1.90066,-1.24892 -3.79552,-2.27078 -4.21077,-2.27078 -0.41527,0 -1.08371,-0.78666 -1.48545,-1.74815 -0.40173,-0.96148 -1.26752,-2.03122 -1.92396,-2.37718 -0.65645,-0.34597 -2.64927,-2.07796 -4.42848,-3.84884 -3.03634,-3.02216 -6.09509,-4.75057 -7.19931,-4.06811 -0.90341,0.55833 -5.39344,-2.60732 -9.62184,-6.78376 -3.20113,-3.16181 -5.13731,-4.5973 -8.09208,-5.99945 -2.13627,-1.01375 -4.38364,-2.42776 -4.99416,-3.14225 -0.61052,-0.71448 -2.30332,-2.18731 -3.76178,-3.27294 -1.93149,-1.43774 -3.26022,-3.05209 -4.89199,-5.94356 -1.73407,-3.07271 -2.46331,-3.93266 -3.22739,-3.80578 -0.54293,0.0902 -1.63455,0.29098 -2.42582,0.44627 -1.87227,0.36742 -4.73597,-1.16001 -5.93641,-3.16633 -0.5047,-0.84353 -1.21865,-3.02904 -1.58655,-4.85668 -0.36791,-1.82765 -0.94886,-3.7831 -1.291,-4.34545 -0.34519,-0.56736 -0.77586,-3.98064 -0.96758,-7.66843 -0.27579,-5.30507 -0.52875,-6.85228 -1.25373,-7.66844 -3.03798,-3.42008 -3.92284,-7.03771 -2.12038,-8.66891 0.96128,-0.86994 1.06682,-0.84673 2.85611,0.62816 1.17128,0.96546 2.22399,1.43575 2.84838,1.27246 1.67241,-0.43734 3.01071,-2.63554 3.01071,-4.94518 0,-1.16481 0.31074,-2.57161 0.69056,-3.12623 0.37981,-0.55463 0.83276,-1.59502 1.00653,-2.31201 0.19863,-0.81953 0.9791,-1.61982 2.10182,-2.15521 1.50834,-0.71929 1.92425,-1.31112 2.67644,-3.8087 0.95732,-3.17867 1.10074,-8.23727 0.43491,-15.3404 -0.31438,-3.35376 -0.23361,-4.54244 0.39948,-5.87914 1.5668,-3.30822 2.86144,-11.21149 2.81415,-17.17927 -0.0285,-3.59592 0.1381,-4.48921 1.07318,-5.75397 0.92444,-1.25035 1.05222,-1.90962 0.77511,-3.9986 -0.29339,-2.21167 -0.49515,-2.53405 -1.74204,-2.78343 -1.89006,-0.37801 -2.17091,-2.10148 -0.90428,-5.54905 0.54728,-1.48963 1.07563,-4.31879 1.17411,-6.28702 0.0985,-1.96824 0.47061,-4.99587 0.82695,-6.72808 l 0.64791,-3.14948 4.36497,-0.2919 c 2.40074,-0.16054 12.35671,-0.56873 22.12439,-0.9071 l 17.75943,-0.61521 1.28385,1.20613 c 0.70613,0.66338 1.28387,1.62614 1.28387,2.13947 0,0.51335 0.34508,0.93335 0.76685,0.93335 0.42602,0 0.76684,-0.45442 0.76684,-1.02246 0,-0.68163 0.34082,-1.02246 1.02246,-1.02246 0.74981,0 1.02245,-0.34082 1.02245,-1.27807 0,-1.17592 0.18584,-1.27807 2.32493,-1.27807 h 2.32492 l -0.1522,3.19518 -0.15219,3.19518 -3.07172,0.0602 c -2.15221,0.0422 -3.60601,0.38596 -4.85667,1.14836 -0.98174,0.59846 -2.18756,1.08899 -2.67963,1.09003 -0.59716,0.001 -0.89465,0.40055 -0.89465,1.20075 0,1.84684 1.53786,2.891 4.2579,2.891 1.78192,0 2.38809,0.19464 2.38809,0.76684 0,0.53557 0.53964,0.76684 1.7893,0.76684 h 1.78931 v 2.55615 2.55615 h -1.78931 c -1.24966,0 -1.7893,0.23127 -1.7893,0.76684 0,0.42177 -0.34508,0.76684 -0.76685,0.76684 -0.42176,0 -0.76684,0.34508 -0.76684,0.76685 0,0.42176 -0.34508,0.76684 -0.76684,0.76684 -0.42602,0 -0.76685,0.45443 -0.76685,1.02246 0,0.56803 0.34083,1.02245 0.76685,1.02245 0.42176,0 0.76684,0.34509 0.76684,0.76686 0,0.57939 0.62483,0.76684 2.55614,0.76684 1.93132,0 2.55616,0.18745 2.55616,0.76684 0,0.51123 0.51121,0.76685 1.53368,0.76685 1.4996,0 1.53369,0.0568 1.53369,2.55614 0,2.49934 -0.0341,2.55614 -1.53369,2.55614 -1.02247,0 -1.53368,0.25562 -1.53368,0.76684 0,0.53558 -0.53964,0.76686 -1.78931,0.76686 -1.24966,0 -1.7893,0.23126 -1.7893,0.76684 0,0.42175 -0.34508,0.76684 -0.76685,0.76684 -0.42176,0 -0.76684,0.3305 -0.76684,0.73445 0,0.4455 -0.65368,0.81558 -1.66149,0.94064 -1.17936,0.14637 -0.90566,0.22993 0.94322,0.28801 1.79668,0.0565 2.86719,0.37185 3.4508,1.01672 1.13898,1.25856 1.06669,2.13247 -0.17639,2.13247 -0.95002,0 -1.02245,0.34082 -1.02245,4.81124 0,4.74487 0.0216,4.82948 1.57292,6.13474 1.54303,1.29838 1.72227,1.32351 9.43974,1.32351 7.16892,0 7.91235,0.0851 8.37987,0.95861 0.28216,0.52724 0.98574,1.08221 1.56351,1.23332 0.83312,0.21785 1.20672,-0.0992 1.80549,-1.53228 0.41526,-0.99382 0.75501,-2.44086 0.75501,-3.21563 0,-0.77476 0.34508,-1.69504 0.76684,-2.04507 0.43034,-0.35714 0.76685,-1.47155 0.76685,-2.53951 0,-3.44249 3.64702,-5.08619 3.9973,-1.80157 0.0897,0.84113 0.50489,2.55218 0.92265,3.80236 0.47477,1.4208 0.63524,3.00874 0.42802,4.23531 -0.38317,2.26794 0.32846,3.46062 2.06485,3.46062 0.63408,0 1.43927,0.34508 1.7893,0.76684 0.35003,0.42177 1.41344,0.76684 2.36313,0.76684 1.72546,0 1.7267,0.002 1.7267,2.49372 0,1.37154 0.34817,3.32699 0.77371,4.34544 0.74466,1.78225 0.87077,1.85174 3.36047,1.85174 2.18763,0 2.5605,0.13804 2.41652,0.89465 -0.13542,0.71153 -0.79712,0.92656 -3.23268,1.05053 -1.68432,0.0857 -3.24732,0.33967 -3.47335,0.5643 -0.22601,0.22465 -0.25389,1.59233 -0.0619,3.03931 l 0.349,2.63088 h 2.49029 c 1.87275,0 2.49028,0.19015 2.49028,0.76684 0,0.42176 0.34507,0.76684 0.76684,0.76684 0.42176,0 0.76684,0.34508 0.76684,0.76685 0,0.42176 0.34508,0.76684 0.76684,0.76684 0.57087,0 0.76685,0.60297 0.76685,2.3594 0,1.83539 -0.28933,2.6586 -1.30271,3.70642 -0.71649,0.74085 -2.12358,2.32473 -3.12687,3.51972 -1.49422,1.77976 -2.14148,2.17273 -3.5787,2.17273 h -1.75455 l 0.35096,-6.31656 c 0.35337,-6.36017 0.0352,-7.8461 -1.32861,-6.20293 -0.81966,0.98763 -2.55148,0.98381 -2.55148,-0.006 0,-0.42177 -0.34507,-0.76685 -0.76684,-0.76685 -0.42176,0 -0.76684,0.34508 -0.76684,0.76685 0,0.42176 -0.34508,0.76684 -0.76684,0.76684 -0.60299,0 -0.76685,0.71004 -0.76685,3.32299 v 3.32299 h -3.32299 -3.32299 v 5.87914 5.87913 h -7.41282 -7.41283 v 1.78931 c 0,1.24967 0.23128,1.7893 0.76684,1.7893 0.42177,0 0.76686,0.34508 0.76686,0.76684 0,0.42177 0.34508,0.76684 0.76684,0.76684 0.53557,0 0.76684,-0.53963 0.76684,-1.7893 v -1.78931 h 3.75844 3.75846 l 0.32126,4.16622 c 0.33725,4.37327 1.16525,6.05838 2.97689,6.05838 0.77707,0 0.94322,0.40523 0.94322,2.30052 v 2.30053 h 2.04491 c 1.82316,0 2.04492,0.13435 2.04492,1.23885 0,0.68137 0.57514,1.92236 1.27807,2.75776 1.5806,1.87842 1.58026,2.08704 -0.009,5.22251 l -1.28665,2.53915 1.29529,2.55615 c 0.71241,1.40588 1.6365,2.55615 2.05353,2.55615 0.56652,0 0.75824,0.63046 0.75824,2.49354 0,1.59281 0.27699,2.72345 0.76684,3.12998 0.42177,0.35003 0.76684,1.06836 0.76684,1.59628 0,0.61904 0.36305,0.95986 1.02246,0.95986 0.82771,0 1.02246,0.34083 1.02246,1.7893 0,1.24967 0.23127,1.7893 0.76684,1.7893 0.42177,0 0.76684,0.30943 0.76684,0.68762 0,1.34116 1.8237,2.37977 4.17866,2.37977 2.39864,0 4.00101,1.06594 4.00101,2.6616 0,0.43549 0.32176,1.05884 0.71502,1.3852 0.76653,0.63617 1.22655,2.92145 1.65518,8.22269 0.14776,1.82765 0.48011,3.54154 0.73854,3.80866 0.25842,0.26712 0.46986,1.3317 0.46986,2.36574 0,1.04749 0.33959,2.1619 0.76684,2.5165 0.42177,0.35003 0.76686,1.04019 0.76686,1.53368 0,0.4935 0.34508,1.18366 0.76684,1.53369 0.48984,0.40653 0.76684,1.53716 0.76684,3.12997 0,1.87567 0.19002,2.49355 0.76685,2.49355 1.0026,0 0.98779,1.73635 -0.0219,2.57437 -0.6946,0.57647 -0.59106,0.85865 0.86713,2.36313 1.18717,1.22485 2.11162,1.70849 3.26571,1.70849 0.92835,0 1.97931,0.40832 2.48275,0.96461 0.6324,0.69879 1.7766,1.02215 4.15223,1.17341 3.06154,0.19495 3.39237,0.33966 4.98283,2.17955 1.56175,1.80668 1.82917,1.92892 3.21203,1.46817 2.71997,-0.90623 1.87967,-3.79439 -1.28833,-4.428 -1.64069,-0.32813 -2.4842,-2.01982 -1.56148,-3.13163 0.32059,-0.38628 1.54737,-0.86136 2.72619,-1.05571 2.68839,-0.44326 3.2058,-0.86884 4.74197,-3.90033 1.19187,-2.35208 3.27441,-4.00589 5.04435,-4.00589 0.56159,0 0.79223,-0.51078 0.79223,-1.75449 0,-1.35057 -0.33971,-1.99639 -1.47555,-2.80517 -0.81154,-0.57788 -1.82643,-1.92766 -2.2553,-2.99953 -0.45306,-1.13229 -1.33423,-2.20146 -2.10307,-2.55178 -0.72781,-0.3316 -1.33044,-0.78039 -1.33917,-0.9973 -0.15338,-3.80811 -0.59858,-6.96322 -1.23696,-8.76614 -0.43565,-1.23035 -0.79207,-2.67311 -0.79207,-3.20614 0,-0.5401 -0.57123,-1.22942 -1.29033,-1.55705 -1.3361,-0.60878 -2.10391,-2.40206 -1.59561,-3.72668 0.38165,-0.99455 -1.21912,-1.86085 -2.31022,-1.25024 -1.44611,0.80929 -2.12624,-0.64488 -1.4138,-3.02279 0.55478,-1.85168 0.48754,-2.28505 -0.73516,-4.73869 -0.74018,-1.48534 -1.34578,-3.4711 -1.34578,-4.41279 0,-1.16727 -0.42793,-2.14009 -1.34464,-3.0568 -1.55772,-1.55772 -4.27889,-6.32033 -4.27889,-7.48895 0,-0.43874 -0.65734,-1.55339 -1.46078,-2.47699 -0.80344,-0.92361 -1.62289,-2.56248 -1.82101,-3.64194 -0.52183,-2.84315 -1.27356,-4.24278 -2.60449,-4.84919 -1.04336,-0.47538 -1.76323,-1.90972 -3.57297,-7.11915 -0.1334,-0.38398 -1.14247,-0.63904 -2.52819,-0.63904 -2.17199,0 -2.36628,-0.11777 -3.33904,-2.02455 -0.56806,-1.11351 -1.03284,-2.58863 -1.03284,-3.27805 0,-1.43725 1.06657,-1.71061 7.6613,-1.96347 l 3.82708,-0.14675 0.87723,1.7893 c 0.48248,0.98411 0.88829,2.52339 0.90179,3.42063 0.0136,0.89722 0.2546,1.77349 0.53578,1.94728 0.28118,0.17377 0.51123,0.97371 0.51123,1.77766 0,2.1283 0.49105,3.07901 1.59035,3.07901 0.72017,0 1.13126,-0.60397 1.59744,-2.34693 l 0.6277,-2.34693 1.98361,0.31719 c 2.58174,0.41283 3.40771,-0.31209 3.38504,-2.97095 -0.0333,-3.90788 -1.42869,-11.27983 -3.01142,-15.90991 -0.86442,-2.52871 -1.57165,-5.21419 -1.57165,-5.96771 0,-0.75354 -0.56972,-2.04713 -1.26602,-2.87464 -1.21473,-1.44362 -1.22863,-1.53843 -0.34317,-2.33975 0.50756,-0.45935 1.65241,-0.83517 2.54409,-0.83517 h 1.62124 v -6.64599 c 0,-5.90055 -0.097,-6.64598 -0.86456,-6.64598 -0.75388,0 -0.73752,-0.0961 0.12781,-0.75059 0.5458,-0.41282 1.62501,-0.7579 2.39824,-0.76684 1.05964,-0.0124 1.40588,-0.26807 1.40588,-1.03871 0,-0.87099 -0.34081,-1.02246 -2.30053,-1.02246 -2.24249,0 -2.30203,-0.0419 -2.35983,-1.6615 -0.0326,-0.91382 -0.16452,-1.2589 -0.2931,-0.76684 -0.12859,0.49206 -0.52635,0.89466 -0.88393,0.89466 -0.78804,0 -2.34228,-1.63806 -2.34228,-2.4686 0,-0.43003 -2.08915,-0.59879 -7.41281,-0.59879 h -7.41282 v 3.19819 c 0,3.1142 0.0436,3.21782 1.66149,3.9451 1.22625,0.55125 1.42713,0.79464 0.76684,0.92912 -0.49206,0.10023 -0.89465,0.51044 -0.89465,0.91159 0,0.55686 -0.78594,0.72936 -3.32298,0.72936 -2.94116,0 -3.323,-0.11328 -3.323,-0.98594 0,-0.54228 -0.34508,-1.33102 -0.76684,-1.75279 -1.00898,-1.00897 -0.97971,-2.51037 0.11839,-6.0756 0.8573,-2.78343 0.98997,-2.93542 2.56555,-2.93956 l 1.66149,-0.005 -0.0188,-4.72886 c -0.017,-4.29865 -0.17044,-5.0312 -1.68597,-8.05186 -1.13004,-2.25232 -1.94759,-3.30011 -2.53739,-3.25199 -0.66219,0.0541 -0.87018,-0.34308 -0.87018,-1.6615 0,-1.52724 -0.15828,-1.7325 -1.33609,-1.7325 -1.23906,0 -1.31043,-0.12062 -0.98272,-1.66149 0.19437,-0.91383 0.47183,-2.86928 0.61657,-4.34544 l 0.26319,-2.68396 h -2.4997 c -2.24271,0 -2.70501,0.21025 -4.49652,2.04491 -2.31854,2.3744 -4.91402,2.82579 -5.87914,1.02247 -0.50978,-0.95254 -1.07041,-1.02247 -8.19765,-1.02247 -5.47801,0 -7.65045,-0.16897 -7.65045,-0.59505 0,-0.32729 0.38936,-1.47755 0.86523,-2.55615 l 0.86523,-1.96108 h 6.70853 6.70851 l 0.85326,-1.7893 c 0.69663,-1.46084 1.13633,-1.7893 2.39521,-1.7893 1.37247,0 1.54196,-0.16859 1.54196,-1.5337 0,-1.36328 -0.1704,-1.53369 -1.53368,-1.53369 -1.02246,0 -1.53369,0.25562 -1.53369,0.76685 0,0.53557 -0.53963,0.76684 -1.7893,0.76684 -1.64729,0 -1.7893,-0.12174 -1.7893,-1.53369 0,-1.19286 0.2272,-1.53368 1.02246,-1.53368 0.66562,0 1.02245,-0.34082 1.02245,-0.97656 0,-0.8571 -0.53728,-1.02133 -4.39172,-1.3424 -3.48305,-0.29014 -4.66916,-0.60449 -5.73267,-1.51927 l -1.34096,-1.15344 11.22839,-0.44193 c 6.17561,-0.24306 14.59712,-0.44274 18.71448,-0.44373 6.51402,-10e-4 7.61924,0.11863 8.51167,0.92556 1.32591,1.1989 5.7981,2.38097 9.05247,2.39271 1.40588,0.005 3.2463,0.37885 4.08983,0.83064 0.84353,0.45179 2.33887,0.89678 3.323,0.98886 8.44087,0.78986 9.01617,0.78796 11.75826,-0.0388 1.54647,-0.4663 4.53716,-1.01466 6.64598,-1.21858 2.10882,-0.20391 4.29433,-0.61647 4.85668,-0.91681 0.56236,-0.30032 2.0577,-0.70388 3.32298,-0.89677 3.48391,-0.53113 5.73696,-1.33146 7.2171,-2.56368 0.73588,-0.61263 2.00118,-1.37443 2.81176,-1.69292 0.91633,-0.36001 14.72002,-1.06759 36.49299,-1.87061 19.26057,-0.71036 36.62958,-1.37944 38.59781,-1.48685 1.96823,-0.10744 3.17602,-0.0945 2.68395,0.0286 -0.63852,0.15983 -0.89465,0.73508 -0.89465,2.00936 0,2.33199 0.57623,3.32974 3.61396,6.25772 1.77864,1.71439 2.5208,2.8298 2.5208,3.78866 0,0.98372 0.41102,1.57147 1.4887,2.12876 0.81878,0.42341 2.0784,1.52207 2.79915,2.44146 1.15822,1.47744 1.42988,1.5974 2.33857,1.0326 1.56921,-0.97534 2.22635,-0.79253 4.10005,1.14064 1.78576,1.84242 3.30842,2.50859 7.06405,3.09047 1.342,0.20794 3.11978,1.04415 4.56479,2.14716 1.98606,1.51598 2.57798,1.7323 3.67991,1.34477 0.72223,-0.254 1.60844,-1.07792 1.96936,-1.83093 0.99485,-2.0757 0.29488,-3.86144 -1.96565,-5.01467 -1.07664,-0.54926 -2.69203,-2.06624 -3.58978,-3.37107 l -1.63225,-2.37239 0.83859,-2.66032 c 1.03603,-3.28666 1.04316,-4.16258 0.0567,-6.95855 -0.88474,-2.50759 -1.44705,-3.00573 -3.40557,-3.01689 -0.75664,-0.004 -1.50171,-0.2117 -1.65571,-0.46086 -0.41139,-0.66564 3.68318,-1.00544 16.70679,-1.38645 l 11.63047,-0.34026 v 2.41355 c 0,2.1791 0.21778,2.62521 2.24196,4.59249 1.23308,1.19841 2.39077,2.6478 2.57265,3.22085 0.45399,1.43041 4.11133,2.30809 9.30332,2.23257 2.8008,-0.0408 4.79421,0.21037 6.13475,0.77276 1.44561,0.60648 3.57727,0.83237 7.8364,0.83042 5.08774,-0.002 5.95433,-0.12729 6.64599,-0.95831 0.54216,-0.6514 1.31572,-0.90526 2.43001,-0.79742 3.8686,0.3744 9.00207,-4.689 10.40283,-10.26083 1.30711,-5.19929 5.1501,-3.078 7.18832,3.96789 0.56938,1.96823 1.49176,4.61384 2.04976,5.87913 0.82818,1.87796 0.99166,3.23961 0.88998,7.41283 -0.0685,2.81175 0.14369,7.29779 0.47156,9.96896 0.32787,2.67118 0.60536,8.42251 0.61668,12.78074 0.0152,5.84166 0.28574,9.20035 1.0296,12.78072 1.22148,5.87925 1.26784,8.36321 0.23079,12.36528 -1.1545,4.45538 -1.80161,9.10362 -2.19299,15.75233 -0.27441,4.6617 -0.59558,6.38751 -1.55099,8.33415 -1.35636,2.76357 -1.18109,3.35241 0.73758,2.47821 1.76052,-0.80215 2.26494,-0.38491 2.26153,1.87073 -0.004,2.79565 -0.95042,5.70349 -2.25635,6.93416 -0.6347,0.59814 -1.56276,1.72017 -2.06236,2.4934 -0.97305,1.50608 -2.32442,1.88805 -2.32442,0.65703 0,-0.68135 -1.91644,-2.12101 -2.29084,-1.7209 -0.0871,0.093 -0.40897,1.08634 -0.71525,2.20726 -0.5141,1.88152 -0.45767,2.13 0.73492,3.23584 1.41827,1.31508 1.33561,2.60752 -0.28394,4.43948 -0.49714,0.56236 -1.2917,1.71262 -1.76568,2.55614 -0.47399,0.84353 -1.40257,2.4539 -2.06351,3.57861 -0.9511,1.61846 -1.21031,2.82854 -1.24292,5.8026 -0.0412,3.74686 -0.0479,3.76438 -2.34175,6.09117 -1.26529,1.28342 -2.3232,2.69818 -2.35091,3.14391 -0.0277,0.44573 -0.0852,1.3006 -0.12781,1.8997 -0.0811,1.14061 -5.03155,6.83477 -5.94211,6.83477 -0.28912,0 -0.52568,0.46011 -0.52568,1.02247 0,0.56802 -0.34081,1.02245 -0.76684,1.02245 -0.42177,0 -0.76685,0.34508 -0.76685,0.76685 0,0.42176 -0.34507,0.76684 -0.76684,0.76684 -0.56967,0 -0.76684,0.60017 -0.76684,2.33413 0,2.5019 -0.53389,3.89078 -2.19792,5.71773 -1.66621,1.82934 -2.78643,1.51318 -2.71707,-0.76684 0.0566,-1.85842 -3.8e-4,-1.92198 -1.8588,-2.07579 -1.81631,-0.15032 -1.91711,-0.0797 -1.91711,1.34329 0,1.40963 -1.23526,3.11844 -1.8267,2.527 -0.14757,-0.14757 -0.31455,-1.2731 -0.37107,-2.50119 -0.0904,-1.96344 0.0361,-2.2526 1.04751,-2.39625 0.97006,-0.13777 1.15026,-0.47817 1.15026,-2.17272 0,-1.66855 0.17342,-2.00936 1.02246,-2.00936 0.80752,0 1.02246,-0.34082 1.02246,-1.62124 0,-0.89168 0.32561,-1.98444 0.72359,-2.42834 0.39797,-0.44391 0.87645,-1.6313 1.0633,-2.63865 0.2959,-1.59534 0.16961,-1.94301 -0.97921,-2.69573 -2.00861,-1.31611 -1.80548,-4.34317 0.66529,-9.91425 2.71181,-6.11455 2.85025,-6.89214 1.45637,-8.18005 -1.82825,-1.68926 -5.19838,-2.48225 -7.30772,-1.7195 -1.40176,0.50688 -2.11391,0.50583 -3.52715,-0.005 -1.52939,-0.55304 -1.90075,-0.52269 -2.72421,0.22253 -0.52438,0.47456 -1.32486,0.86284 -1.77884,0.86284 -0.45397,0 -1.12601,0.41793 -1.49343,0.92874 -1.96869,2.73704 -12.68191,5.62334 -12.68191,3.41671 0,-0.42176 -0.35317,-0.76684 -0.78483,-0.76684 -1.49788,0 -3.37522,-1.70626 -4.65407,-4.22993 -1.25662,-2.47983 -1.32801,-2.53009 -3.16346,-2.22737 -6.5157,1.07468 -13.02391,1.49438 -13.97384,0.90113 -0.54806,-0.34227 -2.47312,-0.76018 -4.27791,-0.92872 -2.25978,-0.21103 -3.54908,-0.60215 -4.14102,-1.25622 -0.57221,-0.63229 -1.56242,-0.94979 -2.96216,-0.94979 -1.43514,0 -2.73913,-0.4325 -4.10764,-1.36245 -1.23312,-0.8379 -2.95174,-1.45339 -4.46413,-1.59873 -2.21675,-0.21299 -2.45911,-0.13277 -2.45911,0.81411 0,1.03237 -2.35134,3.33281 -3.12312,3.0555 -0.21672,-0.0779 -0.93465,-0.94677 -1.59539,-1.93089 -0.66075,-0.98411 -1.53528,-1.78931 -1.94341,-1.78931 -0.40814,0 -1.22676,0.92022 -1.81917,2.04493 -1.30526,2.47808 -1.84307,2.48037 -6.97355,0.0296 -3.23959,-1.54747 -4.4052,-1.81881 -9.08435,-2.11471 -4.90198,-0.30997 -5.50103,-0.46125 -6.9016,-1.7428 -1.75537,-1.60619 -5.57677,-2.69965 -7.84757,-2.24548 -1.13123,0.22625 -1.97308,0.005 -3.13589,-0.82257 -2.20913,-1.57305 -4.9845,-1.83642 -8.17715,-0.77599 -4.12892,1.37141 -12.10882,0.91028 -15.90791,-0.91924 -3.51521,-1.69281 -3.93506,-1.69946 -6.2924,-0.0997 -2.54533,1.72731 -4.71064,1.67039 -6.3934,-0.16809 -3.6675,-4.0069 -15.35587,-7.09192 -18.66202,-4.92565 -0.72684,0.47624 -1.32151,1.33893 -1.32151,1.9171 0,0.57817 -0.38243,1.47378 -0.84982,1.99026 -0.78956,0.87245 -0.91553,0.87959 -1.77621,0.10072 -0.85089,-0.77004 -1.02806,-0.77173 -2.17406,-0.0209 -0.8289,0.54312 -1.16259,1.14293 -0.99415,1.787 0.16273,0.62227 -0.1851,1.31488 -0.97113,1.93383 -2.73898,2.15674 -3.11731,3.37638 -2.72229,8.776 0.402,5.49524 1.25344,8.43861 4.34294,15.01335 1.17424,2.49889 2.07733,5.18812 2.07733,6.18585 0,1.71395 1.69929,4.64022 4.07296,7.0139 0.54027,0.54027 1.13026,1.85785 1.31108,2.92793 0.54097,3.20143 0.74777,3.659 2.48734,5.50348 0.91718,0.97248 1.96251,2.75531 2.32297,3.96183 0.36047,1.20651 1.08987,3.0472 1.62088,4.09041 1.83188,3.59874 1.03794,6.4143 -1.71295,6.07468 -0.77114,-0.0953 -0.85033,0.21662 -0.59672,2.34977 0.50823,4.27463 1.05596,5.15414 3.44966,5.53923 1.16934,0.18812 3.54375,1.125 5.27649,2.08197 2.33079,1.28725 3.77722,1.73993 5.5596,1.73993 1.5055,0 3.5408,0.50785 5.42618,1.35397 2.53928,1.13955 3.22108,1.26099 4.30562,0.76684 1.75149,-0.79803 3.44586,-0.73844 6.94857,0.24436 2.35621,0.66112 3.40652,0.71903 5.12595,0.28259 2.59758,-0.65934 3.48038,-0.13954 3.48038,2.04923 0,2.22306 4.52827,6.55449 8.94691,8.558 1.90521,0.86386 3.7491,1.57066 4.09754,1.57066 0.34845,0 0.91993,0.34508 1.26996,0.76684 0.93637,1.12825 4.38789,0.94504 7.02701,-0.373 l 2.28233,-1.13985 0.95034,1.17362 c 1.19011,1.46974 3.92057,1.37128 4.77002,-0.172 0.87081,-1.58206 1.008,-1.61722 7.62713,-1.95509 5.04916,-0.25771 7.74441,-0.0961 14.24313,0.8541 7.84519,1.14706 8.05978,1.21195 10.09825,3.05358 2.07457,1.87426 3.05385,2.14125 6.93647,1.8912 0.84353,-0.0543 1.99379,-0.50862 2.55614,-1.00955 0.56236,-0.50091 1.66725,-1.06339 2.45532,-1.24998 0.87413,-0.20693 1.83024,-1.0127 2.45191,-2.06635 0.56046,-0.94992 1.33035,-1.8466 1.71086,-1.9926 0.3805,-0.14602 0.9568,-1.06838 1.28066,-2.04969 0.66799,-2.02404 2.40461,-2.8834 5.85292,-2.89627 1.15304,-0.004 2.42913,-0.21831 2.83574,-0.47556 1.54717,-0.97885 2.58368,0.32519 2.58368,3.25054 0,2.90335 0.43213,3.58288 2.62915,4.13429 1.64345,0.41248 2.99018,-1.18644 3.0022,-3.56441 0.01,-1.98312 0.44545,-2.6347 2.20859,-3.30505 3.08893,-1.17441 3.71976,-0.20765 1.84443,2.82668 -0.83498,1.35103 -0.93652,1.91602 -0.49324,2.7443 0.77485,1.44781 1.99185,1.30334 3.82088,-0.45359 l 1.55803,-1.4966 1.36584,1.11318 c 1.85531,1.5121 1.46463,3.64675 -0.9255,5.05697 -0.94513,0.55764 -1.71952,1.39376 -1.72086,1.85804 -10e-4,0.46428 -0.74902,1.66504 -1.66149,2.66835 -0.91248,1.00331 -3.1544,4.05015 -4.98205,6.77077 -1.82764,2.72061 -3.6218,4.94792 -3.98702,4.94959 -0.72206,0.002 -2.62956,3.78881 -2.64773,5.25453 -0.006,0.49835 -0.92125,1.89334 -2.03351,3.09999 -1.11224,1.20665 -2.4985,3.21448 -3.08056,4.46184 -1.72777,3.7026 -3.21957,5.54961 -4.49974,5.57121 -0.64202,0.0112 -1.97249,0.82488 -2.95662,1.809 -1.19639,1.19641 -2.26558,1.7893 -3.2267,1.7893 -1.58545,0 -2.80925,1.10947 -3.38347,3.06738 -0.59625,2.03296 -2.25722,3.48828 -5.26605,4.61403 -1.53747,0.57525 -3.76664,1.61508 -4.95372,2.31076 -2.02749,1.18818 -2.26625,1.21976 -3.93917,0.52075 -1.72818,-0.72207 -1.83859,-0.69649 -3.73291,0.86497 -2.11214,1.741 -5.4644,2.69886 -12.01677,3.43362 -2.17543,0.24394 -4.7689,0.91343 -5.99471,1.54748 -2.81158,1.45432 -7.56864,1.83979 -9.46355,0.76683 z m 29.84938,-21.47128 c -0.23208,-1.32643 -0.97868,-1.77184 -2.9861,-1.78148 -1.98524,-0.01 -2.4785,0.61703 -1.29619,1.64645 1.95885,1.70553 4.57151,1.78792 4.28229,0.13503 z M 523.81306,730.6101 c -0.30096,-0.56236 -0.65412,-1.02247 -0.78482,-1.02247 -0.13069,0 -0.23763,0.46011 -0.23763,1.02247 0,0.57844 0.34082,1.02246 0.78483,1.02246 0.62642,0 0.67438,-0.20639 0.23762,-1.02246 z m 2.08674,-5.62352 c 0.95277,0 0.95158,-0.029 -0.0418,-1.02246 -1.11897,-1.11899 -2.30946,-1.32397 -2.82688,-0.48675 -0.5497,0.88942 0.20485,2.15512 1.0837,1.81786 0.4424,-0.16976 1.24566,-0.30865 1.785,-0.30865 z m -9.72156,-2.57414 c 1.57924,-0.84518 1.14975,-1.51569 -0.97086,-1.51569 -2.44933,0 -3.02403,0.51905 -1.50711,1.3612 1.43958,0.79919 1.29068,0.78992 2.47797,0.15449 z m -7.70204,-1.3197 c 0,-0.60761 -0.30463,-0.74484 -1.15027,-0.51822 -0.63264,0.16954 -1.43783,0.31141 -1.7893,0.31525 -0.35147,0.004 -0.63903,0.23703 -0.63903,0.51821 0,0.28117 0.80517,0.51123 1.7893,0.51123 1.30704,0 1.7893,-0.22276 1.7893,-0.82647 z m 19.11147,-15.09166 c 0.59532,-0.84994 1.10066,-1.02541 2.27608,-0.79032 2.5038,0.50076 5.19636,-0.14771 5.19636,-1.25146 0,-0.52557 -0.34507,-0.95557 -0.76684,-0.95557 -0.56804,0 -0.76684,-0.59644 -0.76684,-2.30054 0,-2.28835 -0.01,-2.30053 -1.78931,-2.30053 -1.24966,0 -1.7893,0.23127 -1.7893,0.76684 0,0.42177 -0.34508,0.76685 -0.76685,0.76685 -0.50772,0 -0.76684,0.5078 -0.76684,1.50282 0,1.35955 -0.17795,1.51796 -1.86633,1.6615 -2.27841,0.19371 -4.56081,2.66094 -3.23633,3.49842 1.34527,0.85066 3.4696,0.55356 4.2762,-0.59801 z m 140.90325,-0.96848 c 0,-1.31092 -1.29518,-1.84079 -2.35321,-0.9627 -0.73027,0.60606 -0.7204,0.73228 0.10421,1.33527 1.32544,0.96918 2.24899,0.81617 2.24899,-0.37257 z m -140.99809,-8.50439 c 0.24095,-0.93496 0.20507,-2.17678 -0.0849,-2.93957 -0.57161,-1.50343 -1.96078,-1.69818 -5.19701,-0.72858 -3.03233,0.90851 -2.54187,2.62101 1.34656,4.70157 2.23245,1.19451 3.44314,0.87658 3.93538,-1.03342 z m -76.51196,-12.98026 c 0.18365,-0.29714 0.18874,-1.11875 0.0112,-1.82576 -0.28695,-1.14328 -0.50435,-1.24653 -1.96525,-0.93329 -2.19533,0.47072 -2.41711,0.63962 -2.06039,1.5692 0.51497,1.34198 3.39311,2.19507 4.01436,1.18985 z m -8.54356,-3.87188 c -0.23244,-1.17225 -2.06441,-2.28661 -2.90503,-1.76708 -0.5369,0.33182 -0.56045,0.66555 -0.10682,1.51318 0.71616,1.33819 3.26953,1.55344 3.01184,0.2539 z m 39.93884,-2.1827 c 0.39827,-0.74416 0.33292,-1.0431 -0.27943,-1.27808 -2.23869,-0.85907 -3.60279,0.18028 -2.14711,1.63597 0.89157,0.89156 1.83211,0.75285 2.42654,-0.35789 z m 39.22312,-18.71482 c 0.0943,-0.28327 -0.35933,-1.08846 -1.00806,-1.7893 -1.26042,-1.36162 -2.91289,-4.38301 -2.91289,-5.32593 0,-0.31441 -0.99782,-1.65846 -2.21735,-2.98681 -2.14153,-2.33255 -3.14877,-2.71712 -2.52319,-0.96335 0.34013,0.95353 3.71645,5.7983 4.35836,6.25394 0.23013,0.16333 0.55321,1.19857 0.71798,2.30053 0.16477,1.10195 0.6698,2.29776 1.12227,2.65735 0.91262,0.72529 2.19814,0.64887 2.46288,-0.14643 z m -2.89849,-18.92805 c 0,-2.05062 -1.28793,-4.59563 -2.91025,-5.75083 -0.82074,-0.58441 -2.16958,-2.44667 -2.99741,-4.13833 -0.82784,-1.69166 -1.77723,-3.08813 -2.10975,-3.10326 -1.17175,-0.0533 -1.28072,1.997 -0.19917,3.747 0.58265,0.94275 1.05937,2.17647 1.05937,2.74158 0,3.11889 3.60221,7.79463 6.00694,7.79713 0.89033,10e-4 1.15027,-0.29131 1.15027,-1.29329 z m -59.81382,-13.01992 c 0,-1.19286 -0.2272,-1.53369 -1.02244,-1.53369 -0.79526,0 -1.02247,0.34083 -1.02247,1.53369 0,1.19287 0.22721,1.53369 1.02247,1.53369 0.79524,0 1.02244,-0.34082 1.02244,-1.53369 z m 157.71419,-11.24704 c 0.17379,-0.28117 -0.17129,-0.51123 -0.76684,-0.51123 -0.59554,0 -0.94062,0.23006 -0.76684,0.51123 0.17378,0.28118 0.51886,0.51123 0.76684,0.51123 0.24799,0 0.59307,-0.23005 0.76684,-0.51123 z m -57.29946,-6.44506 c 1.12698,-0.43246 1.01277,-2.0732 -0.16577,-2.3814 -0.71883,-0.18798 -1.03486,0.0614 -1.20487,0.95081 -0.31252,1.63481 -0.002,1.95775 1.37064,1.43059 z m -98.88103,-14.51533 c 0,-0.56804 0.34081,-1.02246 0.76684,-1.02246 0.56803,0 0.76684,-0.59644 0.76684,-2.30053 0,-2.21533 -0.0568,-2.30054 -1.53368,-2.30054 -1.02246,0 -1.5337,0.25562 -1.5337,0.76684 0,0.42603 -0.45442,0.76686 -1.02244,0.76686 -0.56804,0 -1.02247,0.34081 -1.02247,0.76684 0,0.42175 -0.34508,0.76684 -0.76684,0.76684 -0.53558,0 -0.76685,0.53963 -0.76685,1.7893 v 1.7893 h 2.55616 c 2.21532,0 2.55614,-0.13633 2.55614,-1.02245 z m 197.36805,-5.13028 c 0.54387,-0.29107 0.99391,-0.92371 1.00008,-1.40588 0.0276,-2.15199 1.98339,-5.17568 4.01981,-6.21458 1.13464,-0.57885 2.3359,-1.05246 2.66947,-1.05246 0.96833,0 6.01796,-3.52946 6.59664,-4.61076 0.28977,-0.54144 0.52893,-2.19859 0.53144,-3.68254 0.002,-1.48396 0.0162,-3.8696 0.0301,-5.30141 0.048,-4.88572 -3.50251,-9.82658 -6.07279,-8.451 -2.1424,1.14658 -2.88362,2.6482 -3.26187,6.60815 -0.29551,3.09365 -0.60424,4.11431 -1.4522,4.80094 -0.59228,0.4796 -1.36773,0.76041 -1.72319,0.624 -1.0397,-0.39897 -2.23214,1.3654 -2.9664,4.38911 -0.55863,2.30052 -0.89729,2.84217 -1.86257,2.97899 -0.9192,0.1303 -1.31095,-0.18023 -1.77357,-1.40588 -0.41671,-1.104 -0.93121,-1.57311 -1.72532,-1.57311 -1.2932,0 -2.13593,1.82515 -1.25123,2.70985 1.11333,1.11333 0.53144,2.65207 -1.58515,4.19175 -3.05845,2.22482 -3.04267,2.21701 -5.16472,2.55685 -2.25747,0.36152 -2.89031,1.42354 -1.659,2.78411 1.25754,1.38956 3.08499,1.68397 5.13527,0.82731 1.67944,-0.7017 1.97126,-0.66929 4.47756,0.49758 2.91528,1.35726 4.50503,1.54921 6.03764,0.72898 z m -189.09145,-2.41036 c 0.15706,-1.89761 0.18467,-1.9198 2.71482,-2.18182 3.21213,-0.33266 4.11015,-0.83173 3.28521,-1.82572 -0.32925,-0.39672 -0.99493,-0.72132 -1.47927,-0.72132 -0.48435,0 -1.28527,-0.44713 -1.77985,-0.99364 -0.49457,-0.54649 -1.50497,-1.06411 -2.24532,-1.15026 -0.97852,-0.11391 -1.67247,-0.74994 -2.5413,-2.32936 -1.43166,-2.60255 -2.44106,-2.73448 -4.47375,-0.58472 -1.47156,1.55631 -1.57805,1.58322 -5.33575,1.34852 -4.72165,-0.29491 -5.11229,-0.16323 -5.11229,1.72319 0,1.96344 1.24914,2.43181 2.74292,1.02848 1.56732,-1.47242 5.94798,-1.58368 5.94798,-0.15106 0,0.51483 0.57513,1.24387 1.27807,1.62008 0.70293,0.37619 1.27807,0.87517 1.27807,1.10884 0,0.23367 0.64415,0.42484 1.43145,0.42484 1.88237,0 2.65838,0.85064 2.65838,2.91401 0,2.46788 1.42397,2.26698 1.63063,-0.23006 z m 42.84631,-35.65823 c 0,-0.42175 -0.34508,-0.76684 -0.76684,-0.76684 -0.42177,0 -0.76685,-0.34508 -0.76685,-0.76685 0,-0.42176 -0.34508,-0.76684 -0.76684,-0.76684 -0.42176,0 -0.76684,-0.38448 -0.76684,-0.8544 0,-1.15124 -1.48554,-2.7242 -2.57278,-2.7242 -0.48436,0 -1.16702,-0.34508 -1.51706,-0.76684 -0.35003,-0.42177 -1.06836,-0.76684 -1.59628,-0.76684 -0.84119,0 -0.95987,0.41351 -0.95987,3.34455 0,1.94773 0.26689,3.64771 0.63904,4.07039 0.94708,1.07571 9.07432,1.07379 9.07432,-0.002 z m -19.42671,-9.71335 c 0,-0.42602 -0.45443,-0.76685 -1.02246,-0.76685 -0.56802,0 -1.02245,0.34083 -1.02245,0.76685 0,0.42603 0.45443,0.76684 1.02245,0.76684 0.56803,0 1.02246,-0.34081 1.02246,-0.76684 z m -95.6734,-3.48999 c 0.41061,-0.49475 0.4023,-1.1036 -0.0307,-2.25082 l -0.5936,-1.57262 -0.92914,1.1812 c -1.23774,1.57355 -1.22157,3.32047 0.0307,3.32047 0.52792,0 1.21316,-0.3052 1.52273,-0.67823 z m 142.56126,-6.96086 c 5.45738,-2.91036 7.67617,-5.67388 4.87492,-6.07174 -0.84352,-0.11975 -1.28236,0.18635 -1.64885,1.15026 -0.46801,1.23098 -0.71706,1.314 -3.96284,1.32106 -3.61131,0.007 -5.53142,0.64963 -6.47804,2.16519 -1.15245,1.84512 1.63749,3.77909 4.14744,2.87496 0.62306,-0.22443 2.00339,-0.87232 3.06737,-1.43973 z m -139.93156,-2.4466 c 0,-0.88212 -0.24578,-1.18897 -0.85789,-1.07103 -0.88306,0.17015 -1.87693,2.78557 -1.37014,3.60558 0.47789,0.77326 2.22803,-1.21766 2.22803,-2.53455 z m 85.02056,-6.08933 c 0.54435,-0.54437 -0.13793,-1.18182 -0.9368,-0.87527 -0.41115,0.15778 -0.62025,0.49282 -0.46468,0.74452 0.33137,0.53619 0.93931,0.5929 1.40148,0.13075 z m -3.91154,-5.64343 c -0.14674,-0.14673 -0.50986,-0.11651 -0.80694,0.067 -0.36809,0.22749 -0.33821,0.55348 0.0938,1.02336 0.52996,0.57642 0.66232,0.56542 0.80694,-0.067 0.0951,-0.41611 0.053,-0.87662 -0.0938,-1.02336 z"
         id="path1000"
         inkscape:connector-curvature="0" />
    </g>
    <g
       inkscape:groupmode="layer"
       id="layer1"
       inkscape:label="sombra">
      <path
         style="fill:#ff8080;stroke:#ff8080;stroke-width:1px;stroke-linecap:butt;stroke-linejoin:miter;stroke-opacity:1"
         d="m 385.10034,535.61901 49.78338,-87.6346 5.23255,-69.18604 2.12609,-15.96772 29.99173,-5.67289 v 0 0 0 l 11.48683,-20.21986 v 0 l 14.53489,44.18604 22.09303,49.41861 58.13953,29.06977 -6.56298,-16.65158 -42.27423,-65.90656 4.65117,-49.41861 -99.41861,-68.60465 -65.69767,100.5814 z"
         id="path71"
         inkscape:connector-curvature="0"
         sodipodi:nodetypes="ccccccccccccccccccc" />
      <path
         style="fill:#ff8080;stroke:#ff8080;stroke-width:1px;stroke-linecap:butt;stroke-linejoin:miter;stroke-opacity:1"
         d="m 532.87805,383.93116 112.47079,96.61139 45.05814,12.5 -13.66279,-15.98837 -108.13954,-126.74419 z"
         id="path75"
         inkscape:connector-curvature="0"
         sodipodi:nodetypes="cccccc" />
      <path
         style="fill:#ff8080;stroke:#ff8080;stroke-width:1px;stroke-linecap:butt;stroke-linejoin:miter;stroke-opacity:1"
         d="m 670.34884,447.40302 50.5814,58.13953 11.31149,13.80092 4.38618,-72.52185 -90.11628,-105.23256 -22.67442,56.39535 z"
         id="path77"
         inkscape:connector-curvature="0"
         sodipodi:nodetypes="ccccccc" />
    </g>
    <g
       inkscape:groupmode="layer"
       id="layer9"
       inkscape:label="cabelo"
       style="display:inline">
      <path
         style="fill:#000000;stroke:#000000;stroke-width:1.2435379px;stroke-linecap:butt;stroke-linejoin:miter;stroke-opacity:1"
         d="m 409.86575,725.15922 -17.89302,21.47164 -2.04492,-49.58924 -46.01063,21.47162 22.4941,-28.62883 -13.29197,-23.00531 -39.11592,11.3022 22.24536,-49.64438 -9.71335,-27.60637 -9.20213,18.91547 0.51123,-29.65128 -16.35932,-9.20213 v -19.93793 l -16.35934,6.64597 13.80318,-13.80318 -25.56145,-69.52717 -0.51124,-157.45858 38.3422,-93.55493 127.29605,-92.02124 105.31321,-18.91549 135.98694,44.98817 75.15069,94.06616 31.18498,27.09515 12.78073,3.57861 -30.67375,4.60105 -14.31442,-5.11228 18.91548,37.31972 9.71335,41.92079 -13.29195,70.0384 1.02246,48.56676 8.69089,32.71866 -15.8481,35.27482 -7.1572,-39.36465 -37.83097,-24.539 -69.52716,-88.44264 32.71866,62.88119 17.38179,19.42671 -54.70152,-17.89302 -87.9314,-96.62232 v 36.8085 l 15.8481,33.2299 20.44917,20.96039 -57.25767,-42.94324 -13.80319,-39.36465 -6.64597,-46.01062 -18.40425,-28.62884 -32.71867,4.60107 -16.35934,18.40425 6.64599,10.73581 -28.11761,-9.71335 -13.80319,16.87056 4.60107,22.49408 -5.62353,74.12823 -13.29195,39.87587 -12.78072,46.01062 -0.51123,43.96571 -4.60107,26.58392 -22.49408,-93.04371 4.33792,36.29727 1.93335,24.38486 -18.02955,-27.96347 c 10.86851,37.91717 10.03109,39.60242 20.44918,93.04371"
         id="path984"
         inkscape:connector-curvature="0"
         sodipodi:nodetypes="cccccccccccccccccccccccccccccccccccccccccccccccccccccccccccccc" />
    </g>
    <g
       inkscape:groupmode="layer"
       id="layer10"
       inkscape:label="orelha"
       style="display:none">
      <path
         style="fill:#e9afaf;stroke:#000000;stroke-width:1.05605853px;stroke-linecap:butt;stroke-linejoin:miter;stroke-opacity:1"
         d="m 352.21214,558.91013 -23.57558,-0.79952 -7.54419,28.78255 15.55989,31.18108 11.31628,-19.18836 c 4.08642,-5.99636 3.56433,-8.93018 12.2593,-20.78739 l 2.35756,-13.99151"
         id="path987"
         inkscape:connector-curvature="0"
         sodipodi:nodetypes="ccccccc" />
    </g>
    <g
       inkscape:groupmode="layer"
       id="layer15"
       inkscape:label="moletom"
       style="display:inline">
      <path
         style="fill:#000000;stroke:#000000;stroke-width:1.2435379px;stroke-linecap:butt;stroke-linejoin:miter;stroke-opacity:1"
         d="m 374.07972,701.64269 -41.40957,48.05554 11.75827,41.40955 -17.3818,-10.22458 -21.98284,23.51655 -38.34219,1.02245 97.64476,82.3079 308.27117,94.06616 15.33688,4.08983 35.27482,-114.0041 33.74111,-10.22458 33.74113,-58.28012 -18.40425,-17.89302 -25.05023,8.69088 -7.66843,-27.60636 -64.41487,-38.85342 -18.85586,22.76466 10.70572,15.14639 6.61645,24.45891 32.20743,13.80319 -25.56146,62.88118 -36.29727,48.05553 -139.56555,-36.29726 -70.06239,-49.24234 -32.17293,-39.76429 9.76033,-23.13559 -2.1024,-41.22653 -19.93794,-28.1176 -14.31441,5.1123"
         id="path1020"
         inkscape:connector-curvature="0"
         sodipodi:nodetypes="ccccccccccccccccccccccccccccc" />
    </g>
    <g
       inkscape:groupmode="layer"
       id="layer17"
       inkscape:label="nariz"
       style="display:inline">
      <path
         style="fill:none;stroke:#ff8080;stroke-width:1.2435379px;stroke-linecap:butt;stroke-linejoin:miter;stroke-opacity:1"
         d="m 658.15019,567.44176 c -5.25213,11.03998 -13.32472,17.84926 -22.4126,23.1356"
         id="path1034"
         inkscape:connector-curvature="0"
         sodipodi:nodetypes="cc" />
      <path
         style="fill:#ff8080;stroke:#ff8080;stroke-width:1.2435379px;stroke-linecap:butt;stroke-linejoin:miter;stroke-opacity:1"
         d="m 658.15019,567.44176 -0.36149,22.05111 -22.05111,1.08449"
         id="path1036"
         inkscape:connector-curvature="0"
         sodipodi:nodetypes="ccc" />
    </g>
  </g>
  <ellipse
     style="opacity:0;fill:#800080;stroke:#ff8080;stroke-width:1;stroke-linecap:butt;stroke-linejoin:round;stroke-miterlimit:4;stroke-dasharray:none;stroke-dashoffset:0;stroke-opacity:1;paint-order:normal"
     id="path1041"
     cx="1213.5925"
     cy="596.71405"
     rx="205.55429"
     ry="34.533123" />
  <rect
     style="opacity:0;fill:#ff0000;fill-opacity:0;stroke:#ff8080;stroke-width:1;stroke-linecap:butt;stroke-linejoin:round;stroke-miterlimit:4;stroke-dasharray:none;stroke-dashoffset:0;stroke-opacity:1;paint-order:normal"
     id="rect37"
     width="207.19873"
     height="236.79855"
     x="115.1104"
     y="111.60593" />
</svg>
